<svg width="80" height="80" viewBox="0 0 80 80" fill="none" xmlns="http://www.w3.org/2000/svg">
<path d="M31.4852 27.3137L40.1875 36.0316C40.6718 36.516 40.6718 37.3128 40.1875 37.7971L38.422 39.5625C37.9377 40.0469 37.1409 40.0469 36.6566 39.5625L27.9543 30.8446L20.8769 37.9221L29.5948 46.64C30.0791 47.1243 30.0791 47.9211 29.5948 48.4054L27.8293 50.1709C27.345 50.6552 26.5482 50.6552 26.0639 50.1709L17.346 41.4374L13.2214 45.562C10.5185 48.2648 9.22176 51.9832 9.62797 55.7797L10.7372 65.7162L0.363246 76.0902C-0.121082 76.5746 -0.121082 77.3714 0.363246 77.8557L2.1287 79.6211C2.61303 80.1055 3.40982 80.1055 3.89415 79.6211L14.2525 69.2628L24.189 70.372C27.9231 70.7783 31.6727 69.5284 34.4068 66.7786L62.8259 38.3595L41.6248 17.1585L31.4852 27.3137ZM79.6368 12.737L67.263 0.363246C66.7786 -0.121082 65.9818 -0.121082 65.4975 0.363246L63.7321 2.1287C63.2477 2.61303 63.2477 3.40982 63.7321 3.89415L68.1535 8.3156L61.0761 15.393L52.2332 6.55014L49.5772 3.89415C49.0929 3.40982 48.2961 3.40982 47.8117 3.89415L42.5154 9.19051C42.0311 9.67484 42.0311 10.4716 42.5154 10.956L45.1714 13.612L66.3724 34.8443L69.0284 37.5002C69.5127 37.9846 70.3095 37.9846 70.7939 37.5002L76.0902 32.1883C76.5746 31.7039 76.5746 30.9071 76.0902 30.4228L64.607 18.9396L71.6844 11.8621L76.1059 16.2836C76.5902 16.7679 77.387 16.7679 77.8713 16.2836L79.6368 14.5181C80.1211 14.0182 80.1211 13.237 79.6368 12.737Z" fill="white"/>
</svg>
