<svg width="97" height="77" viewBox="0 0 97 77" fill="none" xmlns="http://www.w3.org/2000/svg">
<path d="M72.3918 47.784C75.227 47.784 77.9986 46.9432 80.356 45.3681C82.7134 43.7929 84.5508 41.554 85.6358 38.9346C86.7208 36.3152 87.0047 33.4329 86.4515 30.6521C85.8984 27.8714 84.5331 25.3171 82.5283 23.3123C80.5235 21.3075 77.9692 19.9422 75.1885 19.389C72.4077 18.8359 69.5254 19.1198 66.906 20.2048C64.2865 21.2898 62.0477 23.1272 60.4725 25.4846C58.8973 27.842 58.0566 30.6136 58.0566 33.4488C58.0566 37.2507 59.5669 40.8969 62.2553 43.5853C64.9436 46.2737 68.5899 47.784 72.3918 47.784ZM79.5594 52.5624C79.2016 52.5611 78.8459 52.616 78.5052 52.7251C74.5452 54.101 70.2369 54.101 66.2769 52.7251C65.9367 52.616 65.5815 52.5611 65.2242 52.5624C63.0201 52.5624 60.8377 52.998 58.8026 53.8442C56.7674 54.6905 54.9196 55.9307 53.3654 57.4935C51.8112 59.0564 50.5812 60.911 49.7462 62.9508C48.9112 64.9906 48.4876 67.1753 48.4998 69.3794C48.5207 73.3006 51.7446 76.4544 55.6674 76.4544H89.1162C93.039 76.4544 96.2629 73.3006 96.2838 69.3794C96.296 67.1753 95.8724 64.9906 95.0374 62.9508C94.2024 60.911 92.9724 59.0564 91.4182 57.4935C89.864 55.9307 88.0162 54.6905 85.981 53.8442C83.9458 52.998 81.7635 52.5624 79.5594 52.5624ZM49.9796 54.1228C50.9895 53.1297 52.0943 52.238 53.2782 51.4604V19.1136C53.2782 17.8463 52.7748 16.6309 51.8786 15.7348C50.9825 14.8386 49.7671 14.3352 48.4998 14.3352H43.7214V4.7784C43.7214 3.51109 43.218 2.29568 42.3218 1.39956C41.4257 0.503437 40.2103 0 38.943 0L15.051 0C13.7837 0 12.5683 0.503437 11.6722 1.39956C10.7761 2.29568 10.2726 3.51109 10.2726 4.7784V14.3352H5.49422C4.22691 14.3352 3.0115 14.8386 2.11538 15.7348C1.21926 16.6309 0.71582 17.8463 0.71582 19.1136L0.71582 74.0652C0.71582 74.6988 0.967539 75.3065 1.4156 75.7546C1.86366 76.2027 2.47136 76.4544 3.10502 76.4544H46.1569C44.6004 74.4317 43.7454 71.9569 43.7214 69.4047C43.6983 66.5697 44.2397 63.7583 45.3142 61.1346C46.3886 58.5109 47.9746 56.1273 49.9796 54.1228ZM22.2186 60.3273C22.2186 60.8025 22.0298 61.2583 21.6938 61.5943C21.3577 61.9304 20.902 62.1192 20.4267 62.1192H14.4537C13.9785 62.1192 13.5227 61.9304 13.1867 61.5943C12.8506 61.2583 12.6618 60.8025 12.6618 60.3273V54.3543C12.6618 53.879 12.8506 53.4233 13.1867 53.0872C13.5227 52.7512 13.9785 52.5624 14.4537 52.5624H20.4267C20.902 52.5624 21.3577 52.7512 21.6938 53.0872C22.0298 53.4233 22.2186 53.879 22.2186 54.3543V60.3273ZM22.2186 41.2137C22.2186 41.6889 22.0298 42.1447 21.6938 42.4808C21.3577 42.8168 20.902 43.0056 20.4267 43.0056H14.4537C13.9785 43.0056 13.5227 42.8168 13.1867 42.4808C12.8506 42.1447 12.6618 41.6889 12.6618 41.2137V35.2407C12.6618 34.7654 12.8506 34.3097 13.1867 33.9736C13.5227 33.6376 13.9785 33.4488 14.4537 33.4488H20.4267C20.902 33.4488 21.3577 33.6376 21.6938 33.9736C22.0298 34.3097 22.2186 34.7654 22.2186 35.2407V41.2137ZM29.3862 22.996C29.3862 23.2337 29.2918 23.4616 29.1238 23.6296C28.9558 23.7976 28.7279 23.892 28.4903 23.892H25.5038C25.2661 23.892 25.0383 23.7976 24.8702 23.6296C24.7022 23.4616 24.6078 23.2337 24.6078 22.996V19.1136H20.7254C20.4877 19.1136 20.2599 19.0192 20.0918 18.8512C19.9238 18.6832 19.8294 18.4553 19.8294 18.2176V15.2311C19.8294 14.9935 19.9238 14.7656 20.0918 14.5976C20.2599 14.4296 20.4877 14.3352 20.7254 14.3352H24.6078V10.4527C24.6078 10.2151 24.7022 9.98724 24.8702 9.81921C25.0383 9.65119 25.2661 9.5568 25.5038 9.5568H28.4903C28.7279 9.5568 28.9558 9.65119 29.1238 9.81921C29.2918 9.98724 29.3862 10.2151 29.3862 10.4527V14.3352H33.2687C33.5063 14.3352 33.7342 14.4296 33.9022 14.5976C34.0702 14.7656 34.1646 14.9935 34.1646 15.2311V18.2176C34.1646 18.4553 34.0702 18.6832 33.9022 18.8512C33.7342 19.0192 33.5063 19.1136 33.2687 19.1136H29.3862V22.996ZM41.3322 60.3273C41.3322 60.8025 41.1434 61.2583 40.8074 61.5943C40.4713 61.9304 40.0155 62.1192 39.5403 62.1192H33.5673C33.0921 62.1192 32.6363 61.9304 32.3002 61.5943C31.9642 61.2583 31.7754 60.8025 31.7754 60.3273V54.3543C31.7754 53.879 31.9642 53.4233 32.3002 53.0872C32.6363 52.7512 33.0921 52.5624 33.5673 52.5624H39.5403C40.0155 52.5624 40.4713 52.7512 40.8074 53.0872C41.1434 53.4233 41.3322 53.879 41.3322 54.3543V60.3273ZM41.3322 41.2137C41.3322 41.6889 41.1434 42.1447 40.8074 42.4808C40.4713 42.8168 40.0155 43.0056 39.5403 43.0056H33.5673C33.0921 43.0056 32.6363 42.8168 32.3002 42.4808C31.9642 42.1447 31.7754 41.6889 31.7754 41.2137V35.2407C31.7754 34.7654 31.9642 34.3097 32.3002 33.9736C32.6363 33.6376 33.0921 33.4488 33.5673 33.4488H39.5403C40.0155 33.4488 40.4713 33.6376 40.8074 33.9736C41.1434 34.3097 41.3322 34.7654 41.3322 35.2407V41.2137Z" fill="white"/>
</svg>
