<svg width="105" height="73" viewBox="0 0 105 73" fill="none" xmlns="http://www.w3.org/2000/svg">
<path d="M15.75 31.2857C21.5414 31.2857 26.25 26.6092 26.25 20.8571C26.25 15.1051 21.5414 10.4286 15.75 10.4286C9.95859 10.4286 5.25 15.1051 5.25 20.8571C5.25 26.6092 9.95859 31.2857 15.75 31.2857ZM89.25 31.2857C95.0414 31.2857 99.75 26.6092 99.75 20.8571C99.75 15.1051 95.0414 10.4286 89.25 10.4286C83.4586 10.4286 78.75 15.1051 78.75 20.8571C78.75 26.6092 83.4586 31.2857 89.25 31.2857ZM94.5 36.5H84C81.1125 36.5 78.5039 37.6569 76.6008 39.5308C83.2125 43.1319 87.9047 49.6335 88.9219 57.3571H99.75C102.654 57.3571 105 55.027 105 52.1429V46.9286C105 41.1766 100.291 36.5 94.5 36.5ZM52.5 36.5C62.6555 36.5 70.875 28.3364 70.875 18.25C70.875 8.16362 62.6555 0 52.5 0C42.3445 0 34.125 8.16362 34.125 18.25C34.125 28.3364 42.3445 36.5 52.5 36.5ZM65.1 41.7143H63.7383C60.3258 43.3438 56.5359 44.3214 52.5 44.3214C48.4641 44.3214 44.6906 43.3438 41.2617 41.7143H39.9C29.4656 41.7143 21 50.1223 21 60.4857V65.1786C21 69.4967 24.5273 73 28.875 73H76.125C80.4727 73 84 69.4967 84 65.1786V60.4857C84 50.1223 75.5344 41.7143 65.1 41.7143ZM28.3992 39.5308C26.4961 37.6569 23.8875 36.5 21 36.5H10.5C4.70859 36.5 0 41.1766 0 46.9286V52.1429C0 55.027 2.34609 57.3571 5.25 57.3571H16.0617C17.0953 49.6335 21.7875 43.1319 28.3992 39.5308Z" fill="white"/>
</svg>
