<svg width="305" height="480" viewBox="0 0 305 480" fill="none" xmlns="http://www.w3.org/2000/svg">
<path d="M0 100C0 44.7715 44.7715 0 100 0H305V397C305 452.228 260.228 497 205 497H0V100Z" fill="#FE5D14"/>
<path d="M198.63 95.1186C194.355 95.102 190.676 94.0497 187.593 91.9616C184.528 89.8736 182.166 86.8492 180.509 82.8885C178.868 78.9278 178.056 74.1634 178.073 68.5952C178.073 63.0436 178.893 58.3123 180.534 54.4013C182.191 50.4903 184.552 47.5156 187.618 45.4773C190.701 43.4223 194.371 42.3949 198.63 42.3949C202.889 42.3949 206.552 43.4223 209.618 45.4773C212.7 47.5322 215.07 50.5151 216.727 54.4261C218.384 58.3205 219.204 63.0436 219.188 68.5952C219.188 74.1799 218.359 78.9527 216.702 82.9134C215.061 86.8741 212.708 89.8984 209.642 91.9865C206.577 94.0746 202.906 95.1186 198.63 95.1186ZM198.63 86.1946C201.547 86.1946 203.875 84.728 205.615 81.7947C207.355 78.8615 208.217 74.4616 208.201 68.5952C208.201 64.7339 207.803 61.5189 207.007 58.9503C206.229 56.3816 205.118 54.451 203.676 53.1584C202.251 51.8658 200.569 51.2195 198.63 51.2195C195.73 51.2195 193.41 52.6695 191.67 55.5696C189.93 58.4697 189.052 62.8116 189.035 68.5952C189.035 72.5062 189.425 75.7708 190.203 78.3892C190.999 80.991 192.118 82.9465 193.559 84.2557C195.001 85.5483 196.691 86.1946 198.63 86.1946ZM227.509 94L248.613 52.2386V51.8906H224.029V43.0909H259.75V52.0149L238.621 94H227.509ZM71.3265 128.091H83.3826L94.9913 150.016H95.4885L107.097 128.091H119.153L100.584 161.003V179H89.8954V161.003L71.3265 128.091ZM134.236 179.746C130.308 179.746 126.928 178.95 124.094 177.359C121.277 175.752 119.106 173.482 117.581 170.548C116.056 167.598 115.294 164.11 115.294 160.083C115.294 156.156 116.056 152.709 117.581 149.742C119.106 146.776 121.252 144.464 124.019 142.807C126.803 141.15 130.068 140.321 133.813 140.321C136.332 140.321 138.677 140.727 140.848 141.539C143.036 142.335 144.941 143.536 146.565 145.143C148.206 146.751 149.482 148.773 150.393 151.209C151.305 153.628 151.761 156.462 151.761 159.71V162.619H119.52V156.056H141.793C141.793 154.531 141.461 153.181 140.798 152.004C140.135 150.828 139.216 149.908 138.039 149.245C136.879 148.566 135.528 148.226 133.987 148.226C132.38 148.226 130.955 148.599 129.712 149.344C128.485 150.074 127.524 151.06 126.828 152.303C126.132 153.529 125.776 154.896 125.759 156.404V162.643C125.759 164.533 126.107 166.165 126.803 167.54C127.516 168.916 128.518 169.977 129.811 170.722C131.104 171.468 132.637 171.841 134.41 171.841C135.586 171.841 136.664 171.675 137.641 171.344C138.619 171.012 139.456 170.515 140.152 169.852C140.848 169.189 141.378 168.377 141.743 167.416L151.537 168.062C151.04 170.416 150.021 172.471 148.479 174.227C146.955 175.967 144.983 177.326 142.563 178.304C140.16 179.265 137.384 179.746 134.236 179.746ZM169.559 179.721C167.123 179.721 164.952 179.298 163.046 178.453C161.14 177.591 159.632 176.324 158.522 174.65C157.428 172.96 156.881 170.855 156.881 168.336C156.881 166.215 157.271 164.433 158.05 162.991C158.829 161.55 159.889 160.39 161.232 159.511C162.574 158.633 164.098 157.97 165.805 157.523C167.529 157.075 169.335 156.76 171.224 156.578C173.445 156.346 175.235 156.131 176.594 155.932C177.953 155.716 178.939 155.402 179.552 154.987C180.165 154.573 180.472 153.96 180.472 153.148V152.999C180.472 151.424 179.974 150.206 178.98 149.344C178.002 148.483 176.61 148.052 174.804 148.052C172.898 148.052 171.382 148.474 170.255 149.32C169.128 150.148 168.382 151.192 168.018 152.452L158.224 151.656C158.721 149.336 159.699 147.331 161.157 145.641C162.615 143.934 164.496 142.625 166.8 141.713C169.12 140.785 171.804 140.321 174.854 140.321C176.975 140.321 179.005 140.57 180.944 141.067C182.899 141.564 184.631 142.335 186.139 143.379C187.664 144.423 188.865 145.765 189.744 147.406C190.622 149.03 191.061 150.977 191.061 153.247V179H181.018V173.705H180.72C180.107 174.898 179.287 175.951 178.259 176.862C177.232 177.757 175.997 178.461 174.555 178.975C173.114 179.472 171.448 179.721 169.559 179.721ZM172.592 172.413C174.149 172.413 175.525 172.106 176.718 171.493C177.911 170.863 178.848 170.018 179.527 168.957C180.206 167.897 180.546 166.695 180.546 165.353V161.301C180.215 161.517 179.759 161.715 179.179 161.898C178.616 162.063 177.978 162.221 177.265 162.37C176.552 162.503 175.84 162.627 175.127 162.743C174.415 162.842 173.768 162.933 173.188 163.016C171.945 163.199 170.86 163.489 169.932 163.886C169.004 164.284 168.283 164.823 167.769 165.502C167.255 166.165 166.999 166.994 166.999 167.988C166.999 169.43 167.521 170.532 168.565 171.294C169.625 172.04 170.968 172.413 172.592 172.413ZM199.277 179V140.818H209.543V147.48H209.941C210.637 145.11 211.805 143.321 213.446 142.111C215.086 140.884 216.975 140.271 219.113 140.271C219.644 140.271 220.215 140.304 220.828 140.371C221.442 140.437 221.98 140.528 222.444 140.644V150.04C221.947 149.891 221.259 149.759 220.381 149.643C219.503 149.527 218.699 149.469 217.97 149.469C216.412 149.469 215.02 149.808 213.794 150.488C212.584 151.151 211.623 152.079 210.91 153.272C210.214 154.465 209.866 155.841 209.866 157.398V179H199.277ZM259.688 151.706L249.993 152.303C249.827 151.474 249.471 150.728 248.924 150.065C248.377 149.386 247.656 148.847 246.762 148.45C245.883 148.035 244.831 147.828 243.605 147.828C241.964 147.828 240.58 148.176 239.453 148.872C238.326 149.552 237.763 150.463 237.763 151.607C237.763 152.518 238.128 153.289 238.857 153.918C239.586 154.548 240.837 155.054 242.61 155.435L249.521 156.827C253.233 157.589 256 158.815 257.823 160.506C259.646 162.196 260.558 164.417 260.558 167.168C260.558 169.67 259.82 171.866 258.345 173.755C256.887 175.644 254.882 177.119 252.33 178.18C249.794 179.224 246.869 179.746 243.555 179.746C238.5 179.746 234.473 178.693 231.474 176.589C228.491 174.468 226.743 171.584 226.229 167.938L236.644 167.391C236.959 168.933 237.722 170.109 238.931 170.921C240.141 171.717 241.691 172.114 243.58 172.114C245.436 172.114 246.927 171.758 248.054 171.045C249.198 170.316 249.778 169.38 249.794 168.237C249.778 167.275 249.372 166.488 248.576 165.875C247.781 165.245 246.554 164.765 244.897 164.433L238.285 163.116C234.556 162.37 231.78 161.077 229.958 159.238C228.151 157.398 227.248 155.054 227.248 152.203C227.248 149.75 227.911 147.638 229.237 145.864C230.579 144.091 232.46 142.724 234.879 141.763C237.316 140.802 240.166 140.321 243.431 140.321C248.253 140.321 252.048 141.34 254.816 143.379C257.6 145.417 259.224 148.193 259.688 151.706ZM45.4112 227V197.909H65.0135V202.98H51.5618V209.912H64.005V214.983H51.5618V221.929H65.0703V227H45.4112ZM74.8466 205.182L78.8523 212.81L82.9574 205.182H89.1648L82.8438 216.091L89.3352 227H83.1562L78.8523 219.457L74.6193 227H68.3693L74.8466 216.091L68.5966 205.182H74.8466ZM92.7585 235.182V205.182H98.7244V208.847H98.9943C99.2595 208.259 99.643 207.663 100.145 207.057C100.656 206.441 101.319 205.93 102.134 205.523C102.957 205.106 103.98 204.898 105.202 204.898C106.793 204.898 108.26 205.314 109.605 206.148C110.95 206.972 112.025 208.217 112.83 209.884C113.634 211.541 114.037 213.619 114.037 216.119C114.037 218.553 113.644 220.608 112.858 222.284C112.081 223.951 111.021 225.215 109.676 226.077C108.341 226.929 106.845 227.355 105.188 227.355C104.013 227.355 103.014 227.161 102.19 226.773C101.376 226.384 100.708 225.897 100.188 225.31C99.6667 224.713 99.2689 224.112 98.9943 223.506H98.8097V235.182H92.7585ZM98.6818 216.091C98.6818 217.388 98.8617 218.52 99.2216 219.486C99.5814 220.452 100.102 221.205 100.784 221.744C101.466 222.275 102.295 222.54 103.27 222.54C104.255 222.54 105.088 222.27 105.77 221.73C106.452 221.181 106.968 220.423 107.318 219.457C107.678 218.482 107.858 217.36 107.858 216.091C107.858 214.831 107.683 213.723 107.332 212.767C106.982 211.811 106.466 211.062 105.784 210.523C105.102 209.983 104.264 209.713 103.27 209.713C102.285 209.713 101.452 209.973 100.77 210.494C100.098 211.015 99.5814 211.754 99.2216 212.71C98.8617 213.667 98.6818 214.794 98.6818 216.091ZM128.014 227.426C125.77 227.426 123.838 226.972 122.219 226.062C120.609 225.144 119.368 223.847 118.497 222.17C117.626 220.485 117.19 218.491 117.19 216.19C117.19 213.946 117.626 211.976 118.497 210.281C119.368 208.586 120.595 207.265 122.176 206.318C123.767 205.371 125.633 204.898 127.773 204.898C129.212 204.898 130.552 205.13 131.793 205.594C133.043 206.048 134.132 206.735 135.06 207.653C135.997 208.572 136.726 209.727 137.247 211.119C137.768 212.502 138.028 214.121 138.028 215.977V217.639H119.605V213.889H132.332C132.332 213.018 132.143 212.246 131.764 211.574C131.385 210.902 130.86 210.376 130.188 209.997C129.525 209.609 128.753 209.415 127.872 209.415C126.954 209.415 126.139 209.628 125.429 210.054C124.728 210.471 124.179 211.034 123.781 211.744C123.384 212.445 123.18 213.226 123.17 214.088V217.653C123.17 218.733 123.369 219.666 123.767 220.452C124.174 221.238 124.747 221.844 125.486 222.27C126.224 222.696 127.1 222.909 128.114 222.909C128.786 222.909 129.402 222.814 129.96 222.625C130.519 222.436 130.997 222.152 131.395 221.773C131.793 221.394 132.096 220.93 132.304 220.381L137.901 220.75C137.616 222.095 137.034 223.269 136.153 224.273C135.282 225.267 134.155 226.044 132.773 226.602C131.4 227.152 129.813 227.426 128.014 227.426ZM141.977 227V205.182H147.844V208.989H148.071C148.469 207.634 149.136 206.612 150.074 205.92C151.011 205.22 152.091 204.869 153.312 204.869C153.616 204.869 153.942 204.888 154.293 204.926C154.643 204.964 154.951 205.016 155.216 205.082V210.452C154.932 210.366 154.539 210.291 154.037 210.224C153.535 210.158 153.076 210.125 152.659 210.125C151.769 210.125 150.973 210.319 150.273 210.707C149.581 211.086 149.032 211.616 148.625 212.298C148.227 212.98 148.028 213.766 148.028 214.656V227H141.977ZM158.344 227V205.182H164.396V227H158.344ZM161.384 202.369C160.485 202.369 159.713 202.071 159.069 201.474C158.434 200.868 158.117 200.144 158.117 199.301C158.117 198.468 158.434 197.753 159.069 197.156C159.713 196.55 160.485 196.247 161.384 196.247C162.284 196.247 163.051 196.55 163.685 197.156C164.329 197.753 164.651 198.468 164.651 199.301C164.651 200.144 164.329 200.868 163.685 201.474C163.051 202.071 162.284 202.369 161.384 202.369ZM179.186 227.426C176.942 227.426 175.01 226.972 173.391 226.062C171.781 225.144 170.54 223.847 169.669 222.17C168.798 220.485 168.362 218.491 168.362 216.19C168.362 213.946 168.798 211.976 169.669 210.281C170.54 208.586 171.767 207.265 173.348 206.318C174.939 205.371 176.804 204.898 178.945 204.898C180.384 204.898 181.724 205.13 182.964 205.594C184.214 206.048 185.304 206.735 186.232 207.653C187.169 208.572 187.898 209.727 188.419 211.119C188.94 212.502 189.2 214.121 189.2 215.977V217.639H170.777V213.889H183.504C183.504 213.018 183.315 212.246 182.936 211.574C182.557 210.902 182.032 210.376 181.359 209.997C180.696 209.609 179.925 209.415 179.044 209.415C178.125 209.415 177.311 209.628 176.601 210.054C175.9 210.471 175.351 211.034 174.953 211.744C174.555 212.445 174.352 213.226 174.342 214.088V217.653C174.342 218.733 174.541 219.666 174.939 220.452C175.346 221.238 175.919 221.844 176.658 222.27C177.396 222.696 178.272 222.909 179.286 222.909C179.958 222.909 180.573 222.814 181.132 222.625C181.691 222.436 182.169 222.152 182.567 221.773C182.964 221.394 183.268 220.93 183.476 220.381L189.072 220.75C188.788 222.095 188.206 223.269 187.325 224.273C186.454 225.267 185.327 226.044 183.945 226.602C182.571 227.152 180.985 227.426 179.186 227.426ZM199.2 214.386V227H193.149V205.182H198.916V209.031H199.172C199.655 207.762 200.464 206.759 201.601 206.02C202.737 205.272 204.115 204.898 205.734 204.898C207.25 204.898 208.571 205.229 209.697 205.892C210.824 206.555 211.7 207.502 212.325 208.733C212.95 209.955 213.263 211.413 213.263 213.108V227H207.212V214.188C207.221 212.852 206.88 211.811 206.189 211.062C205.498 210.305 204.546 209.926 203.334 209.926C202.519 209.926 201.8 210.101 201.175 210.452C200.559 210.802 200.076 211.313 199.726 211.986C199.385 212.649 199.21 213.449 199.2 214.386ZM227.89 227.426C225.655 227.426 223.733 226.953 222.123 226.006C220.522 225.049 219.291 223.723 218.43 222.028C217.577 220.333 217.151 218.383 217.151 216.176C217.151 213.941 217.582 211.981 218.444 210.295C219.315 208.6 220.551 207.279 222.151 206.332C223.752 205.376 225.655 204.898 227.862 204.898C229.765 204.898 231.432 205.243 232.862 205.935C234.291 206.626 235.423 207.597 236.256 208.847C237.09 210.097 237.549 211.564 237.634 213.25H231.924C231.763 212.161 231.337 211.285 230.646 210.622C229.964 209.95 229.069 209.614 227.961 209.614C227.023 209.614 226.204 209.869 225.504 210.381C224.812 210.883 224.272 211.616 223.884 212.582C223.496 213.548 223.302 214.718 223.302 216.091C223.302 217.483 223.491 218.667 223.87 219.642C224.258 220.617 224.803 221.361 225.504 221.872C226.204 222.384 227.023 222.639 227.961 222.639C228.652 222.639 229.272 222.497 229.822 222.213C230.38 221.929 230.84 221.517 231.2 220.977C231.569 220.428 231.81 219.77 231.924 219.003H237.634C237.54 220.67 237.085 222.137 236.271 223.406C235.466 224.666 234.353 225.651 232.933 226.361C231.512 227.071 229.831 227.426 227.89 227.426ZM251.452 227.426C249.207 227.426 247.276 226.972 245.656 226.062C244.046 225.144 242.806 223.847 241.935 222.17C241.063 220.485 240.628 218.491 240.628 216.19C240.628 213.946 241.063 211.976 241.935 210.281C242.806 208.586 244.032 207.265 245.614 206.318C247.205 205.371 249.07 204.898 251.21 204.898C252.65 204.898 253.99 205.13 255.23 205.594C256.48 206.048 257.569 206.735 258.497 207.653C259.435 208.572 260.164 209.727 260.685 211.119C261.205 212.502 261.466 214.121 261.466 215.977V217.639H243.043V213.889H255.77C255.77 213.018 255.58 212.246 255.202 211.574C254.823 210.902 254.297 210.376 253.625 209.997C252.962 209.609 252.19 209.415 251.31 209.415C250.391 209.415 249.577 209.628 248.866 210.054C248.166 210.471 247.616 211.034 247.219 211.744C246.821 212.445 246.617 213.226 246.608 214.088V217.653C246.608 218.733 246.807 219.666 247.205 220.452C247.612 221.238 248.185 221.844 248.923 222.27C249.662 222.696 250.538 222.909 251.551 222.909C252.223 222.909 252.839 222.814 253.398 222.625C253.956 222.436 254.435 222.152 254.832 221.773C255.23 221.394 255.533 220.93 255.741 220.381L261.338 220.75C261.054 222.095 260.472 223.269 259.591 224.273C258.72 225.267 257.593 226.044 256.21 226.602C254.837 227.152 253.251 227.426 251.452 227.426Z" fill="white"/>
<path d="M212.571 320.625H91.4286C89.5351 320.625 88 319.093 88 317.203V306.938C88 299.378 94.14 293.25 101.714 293.25H115.429V278.422C115.429 276.532 116.964 275 118.857 275H130.286C132.179 275 133.714 276.532 133.714 278.422V293.25H170.286V278.422C170.286 276.532 171.821 275 173.714 275H185.143C187.036 275 188.571 276.532 188.571 278.422V293.25H202.286C209.86 293.25 216 299.378 216 306.938V317.203C216 319.093 214.465 320.625 212.571 320.625ZM91.4286 329.75H212.571C214.465 329.75 216 331.282 216 333.172V407.312C216 414.872 209.86 421 202.286 421H101.714C94.14 421 88 414.872 88 407.312V333.172C88 331.282 89.5351 329.75 91.4286 329.75ZM186.656 357.11L178.608 349.012C177.274 347.67 175.103 347.662 173.759 348.993L143.463 378.987L130.326 365.769C128.992 364.427 126.821 364.418 125.477 365.75L117.363 373.782C116.019 375.113 116.01 377.28 117.344 378.622L140.944 402.366C142.278 403.708 144.449 403.717 145.793 402.386L186.637 361.949C187.981 360.618 187.99 358.452 186.656 357.11Z" fill="white"/>
</svg>
