<svg width="253" height="147" viewBox="0 0 253 147" fill="none" xmlns="http://www.w3.org/2000/svg">
<g filter="url(#filter0_d_70_387)">
<path d="M0 50C0 22.3858 22.3858 0 50 0H243V137H0V50Z" fill="#FE5D14"/>
<path d="M187.217 53.6392C184.774 53.6297 182.672 53.0284 180.911 51.8352C179.159 50.642 177.809 48.9138 176.862 46.6506C175.925 44.3873 175.461 41.6648 175.47 38.483C175.47 35.3106 175.939 32.607 176.876 30.3722C177.823 28.1373 179.173 26.4375 180.925 25.2727C182.686 24.0985 184.784 23.5114 187.217 23.5114C189.651 23.5114 191.744 24.0985 193.496 25.2727C195.257 26.447 196.611 28.1515 197.558 30.3864C198.505 32.6117 198.974 35.3106 198.964 38.483C198.964 41.6742 198.491 44.4015 197.544 46.6648C196.607 48.928 195.262 50.6562 193.51 51.8494C191.758 53.0426 189.661 53.6392 187.217 53.6392ZM187.217 48.5398C188.884 48.5398 190.214 47.7017 191.209 46.0256C192.203 44.3494 192.696 41.8352 192.686 38.483C192.686 36.2765 192.459 34.4394 192.004 32.9716C191.559 31.5038 190.925 30.4006 190.101 29.6619C189.286 28.9233 188.325 28.554 187.217 28.554C185.56 28.554 184.234 29.3826 183.24 31.0398C182.246 32.697 181.744 35.178 181.734 38.483C181.734 40.7178 181.957 42.5833 182.402 44.0795C182.857 45.5663 183.496 46.6837 184.32 47.4318C185.143 48.1705 186.109 48.5398 187.217 48.5398ZM203.719 53L215.779 29.1364V28.9375H201.731V23.9091H222.143V29.0085L210.069 53H203.719ZM114.472 71.9091H121.362L127.995 84.4375H128.279L134.913 71.9091H141.802L131.191 90.7159V101H125.083V90.7159L114.472 71.9091ZM150.42 101.426C148.176 101.426 146.244 100.972 144.625 100.062C143.015 99.1439 141.775 97.8466 140.903 96.1705C140.032 94.4848 139.597 92.4915 139.597 90.1903C139.597 87.946 140.032 85.9763 140.903 84.2812C141.775 82.5862 143.001 81.2652 144.582 80.3182C146.173 79.3712 148.039 78.8977 150.179 78.8977C151.618 78.8977 152.958 79.1297 154.199 79.5938C155.449 80.0483 156.538 80.7348 157.466 81.6534C158.403 82.572 159.133 83.7273 159.653 85.1193C160.174 86.5019 160.435 88.1212 160.435 89.9773V91.6392H142.011V87.8892H154.739C154.739 87.018 154.549 86.2462 154.17 85.5739C153.792 84.9015 153.266 84.3759 152.594 83.9972C151.931 83.6089 151.159 83.4148 150.278 83.4148C149.36 83.4148 148.545 83.6278 147.835 84.054C147.134 84.4706 146.585 85.0341 146.188 85.7443C145.79 86.4451 145.586 87.2263 145.577 88.0881V91.6534C145.577 92.733 145.776 93.6657 146.173 94.4517C146.58 95.2377 147.153 95.8438 147.892 96.2699C148.631 96.696 149.507 96.9091 150.52 96.9091C151.192 96.9091 151.808 96.8144 152.366 96.625C152.925 96.4356 153.403 96.1515 153.801 95.7727C154.199 95.3939 154.502 94.9299 154.71 94.3807L160.307 94.75C160.023 96.0947 159.44 97.2689 158.56 98.2727C157.688 99.267 156.562 100.044 155.179 100.602C153.806 101.152 152.22 101.426 150.42 101.426ZM170.605 101.412C169.213 101.412 167.973 101.17 166.884 100.688C165.795 100.195 164.933 99.4706 164.298 98.5142C163.673 97.5483 163.361 96.3456 163.361 94.9062C163.361 93.6941 163.583 92.6761 164.028 91.8523C164.473 91.0284 165.08 90.3655 165.847 89.8636C166.614 89.3617 167.485 88.983 168.46 88.7273C169.445 88.4716 170.477 88.2917 171.557 88.1875C172.826 88.0549 173.848 87.9318 174.625 87.8182C175.402 87.6951 175.965 87.5152 176.315 87.2784C176.666 87.0417 176.841 86.6913 176.841 86.2273V86.142C176.841 85.2424 176.557 84.5464 175.989 84.054C175.43 83.5616 174.634 83.3153 173.602 83.3153C172.513 83.3153 171.647 83.5568 171.003 84.0398C170.359 84.5133 169.933 85.1098 169.724 85.8295L164.128 85.375C164.412 84.0492 164.971 82.9034 165.804 81.9375C166.637 80.9621 167.712 80.214 169.028 79.6932C170.354 79.1629 171.888 78.8977 173.631 78.8977C174.843 78.8977 176.003 79.0398 177.111 79.3239C178.228 79.608 179.218 80.0483 180.08 80.6449C180.951 81.2415 181.637 82.0085 182.139 82.946C182.641 83.8741 182.892 84.9867 182.892 86.2841V101H177.153V97.9744H176.983C176.633 98.6562 176.164 99.2576 175.577 99.7784C174.99 100.29 174.284 100.692 173.46 100.986C172.636 101.27 171.685 101.412 170.605 101.412ZM172.338 97.2358C173.228 97.2358 174.014 97.0606 174.696 96.7102C175.378 96.3504 175.913 95.8674 176.301 95.2614C176.689 94.6553 176.884 93.9687 176.884 93.2017V90.8864C176.694 91.0095 176.434 91.1231 176.102 91.2273C175.78 91.322 175.416 91.4119 175.009 91.4972C174.601 91.5729 174.194 91.6439 173.787 91.7102C173.38 91.767 173.01 91.8191 172.679 91.8665C171.969 91.9706 171.348 92.1364 170.818 92.3636C170.288 92.5909 169.876 92.8987 169.582 93.2869C169.289 93.6657 169.142 94.1392 169.142 94.7074C169.142 95.5312 169.44 96.161 170.037 96.5966C170.643 97.0227 171.41 97.2358 172.338 97.2358ZM187.587 101V79.1818H193.453V82.9886H193.68C194.078 81.6345 194.746 80.6117 195.683 79.9205C196.621 79.2197 197.7 78.8693 198.922 78.8693C199.225 78.8693 199.552 78.8883 199.902 78.9261C200.252 78.964 200.56 79.0161 200.825 79.0824V84.4517C200.541 84.3665 200.148 84.2907 199.646 84.2244C199.144 84.1581 198.685 84.125 198.268 84.125C197.378 84.125 196.583 84.3191 195.882 84.7074C195.191 85.0862 194.642 85.6165 194.234 86.2983C193.837 86.9801 193.638 87.7661 193.638 88.6562V101H187.587ZM222.107 85.4034L216.567 85.7443C216.473 85.2708 216.269 84.8447 215.957 84.4659C215.644 84.0777 215.232 83.7699 214.721 83.5426C214.219 83.3059 213.618 83.1875 212.917 83.1875C211.979 83.1875 211.189 83.3864 210.545 83.7841C209.901 84.1723 209.579 84.6932 209.579 85.3466C209.579 85.8674 209.787 86.3078 210.204 86.6676C210.621 87.0275 211.335 87.3163 212.349 87.5341L216.298 88.3295C218.419 88.7652 220 89.4659 221.042 90.4318C222.084 91.3977 222.604 92.6667 222.604 94.2386C222.604 95.6686 222.183 96.9233 221.34 98.0028C220.507 99.0824 219.361 99.9252 217.903 100.531C216.454 101.128 214.782 101.426 212.888 101.426C210 101.426 207.699 100.825 205.985 99.6222C204.281 98.41 203.281 96.7623 202.988 94.679L208.94 94.3665C209.12 95.2472 209.555 95.9195 210.246 96.3835C210.938 96.8381 211.823 97.0653 212.903 97.0653C213.963 97.0653 214.816 96.8617 215.46 96.4545C216.113 96.0379 216.444 95.5028 216.454 94.8494C216.444 94.3002 216.212 93.8504 215.758 93.5C215.303 93.1402 214.603 92.8655 213.656 92.6761L209.877 91.9233C207.746 91.4972 206.16 90.7585 205.119 89.7074C204.086 88.6562 203.57 87.3163 203.57 85.6875C203.57 84.286 203.949 83.0786 204.707 82.0653C205.474 81.0521 206.549 80.2708 207.931 79.7216C209.323 79.1723 210.952 78.8977 212.817 78.8977C215.573 78.8977 217.742 79.4801 219.323 80.6449C220.914 81.8097 221.842 83.3958 222.107 85.4034ZM115.206 125V110.455H125.007V112.99H118.281V116.456H124.502V118.991H118.281V122.464H125.035V125H115.206ZM129.923 114.091L131.926 117.905L133.979 114.091H137.082L133.922 119.545L137.168 125H134.078L131.926 121.229L129.81 125H126.685L129.923 119.545L126.798 114.091H129.923ZM138.879 129.091V114.091H141.862V115.923H141.997C142.13 115.63 142.321 115.331 142.572 115.028C142.828 114.721 143.16 114.465 143.567 114.261C143.979 114.053 144.49 113.949 145.101 113.949C145.896 113.949 146.63 114.157 147.303 114.574C147.975 114.986 148.512 115.608 148.915 116.442C149.317 117.27 149.518 118.31 149.518 119.56C149.518 120.777 149.322 121.804 148.929 122.642C148.541 123.475 148.01 124.107 147.338 124.538C146.67 124.964 145.922 125.178 145.094 125.178C144.507 125.178 144.007 125.08 143.595 124.886C143.188 124.692 142.854 124.448 142.594 124.155C142.333 123.857 142.134 123.556 141.997 123.253H141.905V129.091H138.879ZM141.841 119.545C141.841 120.194 141.931 120.76 142.111 121.243C142.291 121.726 142.551 122.102 142.892 122.372C143.233 122.637 143.647 122.77 144.135 122.77C144.627 122.77 145.044 122.635 145.385 122.365C145.726 122.09 145.984 121.712 146.159 121.229C146.339 120.741 146.429 120.18 146.429 119.545C146.429 118.916 146.341 118.362 146.166 117.884C145.991 117.405 145.733 117.031 145.392 116.761C145.051 116.491 144.632 116.357 144.135 116.357C143.643 116.357 143.226 116.487 142.885 116.747C142.549 117.008 142.291 117.377 142.111 117.855C141.931 118.333 141.841 118.897 141.841 119.545ZM156.507 125.213C155.385 125.213 154.419 124.986 153.609 124.531C152.804 124.072 152.184 123.423 151.749 122.585C151.313 121.742 151.095 120.746 151.095 119.595C151.095 118.473 151.313 117.488 151.749 116.641C152.184 115.793 152.797 115.133 153.588 114.659C154.384 114.186 155.316 113.949 156.386 113.949C157.106 113.949 157.776 114.065 158.396 114.297C159.021 114.524 159.566 114.867 160.03 115.327C160.499 115.786 160.863 116.364 161.124 117.06C161.384 117.751 161.514 118.561 161.514 119.489V120.32H152.303V118.445H158.666C158.666 118.009 158.571 117.623 158.382 117.287C158.193 116.951 157.93 116.688 157.594 116.499C157.262 116.304 156.876 116.207 156.436 116.207C155.977 116.207 155.57 116.314 155.214 116.527C154.864 116.735 154.589 117.017 154.391 117.372C154.192 117.723 154.09 118.113 154.085 118.544V120.327C154.085 120.866 154.185 121.333 154.384 121.726C154.587 122.119 154.874 122.422 155.243 122.635C155.612 122.848 156.05 122.955 156.557 122.955C156.893 122.955 157.201 122.907 157.48 122.812C157.759 122.718 157.999 122.576 158.197 122.386C158.396 122.197 158.548 121.965 158.652 121.69L161.45 121.875C161.308 122.547 161.017 123.134 160.577 123.636C160.141 124.134 159.578 124.522 158.886 124.801C158.2 125.076 157.407 125.213 156.507 125.213ZM163.489 125V114.091H166.422V115.994H166.536C166.734 115.317 167.068 114.806 167.537 114.46C168.006 114.11 168.545 113.935 169.156 113.935C169.308 113.935 169.471 113.944 169.646 113.963C169.821 113.982 169.975 114.008 170.108 114.041V116.726C169.966 116.683 169.769 116.645 169.518 116.612C169.268 116.579 169.038 116.562 168.83 116.562C168.384 116.562 167.987 116.66 167.636 116.854C167.291 117.043 167.016 117.308 166.812 117.649C166.614 117.99 166.514 118.383 166.514 118.828V125H163.489ZM171.672 125V114.091H174.698V125H171.672ZM173.192 112.685C172.742 112.685 172.356 112.536 172.034 112.237C171.717 111.934 171.559 111.572 171.559 111.151C171.559 110.734 171.717 110.376 172.034 110.078C172.356 109.775 172.742 109.624 173.192 109.624C173.642 109.624 174.025 109.775 174.343 110.078C174.665 110.376 174.826 110.734 174.826 111.151C174.826 111.572 174.665 111.934 174.343 112.237C174.025 112.536 173.642 112.685 173.192 112.685ZM182.093 125.213C180.971 125.213 180.005 124.986 179.195 124.531C178.39 124.072 177.77 123.423 177.335 122.585C176.899 121.742 176.681 120.746 176.681 119.595C176.681 118.473 176.899 117.488 177.335 116.641C177.77 115.793 178.383 115.133 179.174 114.659C179.969 114.186 180.902 113.949 181.972 113.949C182.692 113.949 183.362 114.065 183.982 114.297C184.607 114.524 185.152 114.867 185.616 115.327C186.085 115.786 186.449 116.364 186.71 117.06C186.97 117.751 187.1 118.561 187.1 119.489V120.32H177.888V118.445H184.252C184.252 118.009 184.157 117.623 183.968 117.287C183.779 116.951 183.516 116.688 183.18 116.499C182.848 116.304 182.462 116.207 182.022 116.207C181.563 116.207 181.156 116.314 180.8 116.527C180.45 116.735 180.175 117.017 179.977 117.372C179.778 117.723 179.676 118.113 179.671 118.544V120.327C179.671 120.866 179.771 121.333 179.969 121.726C180.173 122.119 180.46 122.422 180.829 122.635C181.198 122.848 181.636 122.955 182.143 122.955C182.479 122.955 182.787 122.907 183.066 122.812C183.345 122.718 183.585 122.576 183.783 122.386C183.982 122.197 184.134 121.965 184.238 121.69L187.036 121.875C186.894 122.547 186.603 123.134 186.163 123.636C185.727 124.134 185.164 124.522 184.472 124.801C183.786 125.076 182.993 125.213 182.093 125.213ZM192.1 118.693V125H189.075V114.091H191.958V116.016H192.086C192.327 115.381 192.732 114.879 193.3 114.51C193.869 114.136 194.558 113.949 195.367 113.949C196.125 113.949 196.785 114.115 197.349 114.446C197.912 114.777 198.35 115.251 198.663 115.866C198.975 116.477 199.131 117.206 199.131 118.054V125H196.106V118.594C196.111 117.926 195.94 117.405 195.594 117.031C195.249 116.652 194.773 116.463 194.167 116.463C193.76 116.463 193.4 116.551 193.087 116.726C192.78 116.901 192.538 117.157 192.363 117.493C192.192 117.824 192.105 118.224 192.1 118.693ZM206.445 125.213C205.328 125.213 204.366 124.976 203.561 124.503C202.761 124.025 202.146 123.362 201.715 122.514C201.289 121.667 201.076 120.691 201.076 119.588C201.076 118.471 201.291 117.491 201.722 116.648C202.158 115.8 202.775 115.14 203.576 114.666C204.376 114.188 205.328 113.949 206.431 113.949C207.382 113.949 208.216 114.122 208.931 114.467C209.646 114.813 210.212 115.298 210.628 115.923C211.045 116.548 211.275 117.282 211.317 118.125H208.462C208.382 117.58 208.168 117.143 207.823 116.811C207.482 116.475 207.034 116.307 206.48 116.307C206.012 116.307 205.602 116.435 205.252 116.69C204.906 116.941 204.636 117.308 204.442 117.791C204.248 118.274 204.151 118.859 204.151 119.545C204.151 120.241 204.246 120.833 204.435 121.321C204.629 121.809 204.901 122.18 205.252 122.436C205.602 122.692 206.012 122.82 206.48 122.82C206.826 122.82 207.136 122.749 207.411 122.607C207.69 122.464 207.92 122.259 208.1 121.989C208.284 121.714 208.405 121.385 208.462 121.001H211.317C211.27 121.835 211.042 122.569 210.635 123.203C210.233 123.833 209.676 124.325 208.966 124.68C208.256 125.036 207.416 125.213 206.445 125.213ZM218.226 125.213C217.104 125.213 216.138 124.986 215.328 124.531C214.523 124.072 213.903 123.423 213.467 122.585C213.032 121.742 212.814 120.746 212.814 119.595C212.814 118.473 213.032 117.488 213.467 116.641C213.903 115.793 214.516 115.133 215.307 114.659C216.102 114.186 217.035 113.949 218.105 113.949C218.825 113.949 219.495 114.065 220.115 114.297C220.74 114.524 221.285 114.867 221.749 115.327C222.217 115.786 222.582 116.364 222.842 117.06C223.103 117.751 223.233 118.561 223.233 119.489V120.32H214.021V118.445H220.385C220.385 118.009 220.29 117.623 220.101 117.287C219.911 116.951 219.649 116.688 219.312 116.499C218.981 116.304 218.595 116.207 218.155 116.207C217.696 116.207 217.288 116.314 216.933 116.527C216.583 116.735 216.308 117.017 216.109 117.372C215.911 117.723 215.809 118.113 215.804 118.544V120.327C215.804 120.866 215.903 121.333 216.102 121.726C216.306 122.119 216.592 122.422 216.962 122.635C217.331 122.848 217.769 122.955 218.276 122.955C218.612 122.955 218.92 122.907 219.199 122.812C219.478 122.718 219.717 122.576 219.916 122.386C220.115 122.197 220.267 121.965 220.371 121.69L223.169 121.875C223.027 122.547 222.736 123.134 222.295 123.636C221.86 124.134 221.296 124.522 220.605 124.801C219.919 125.076 219.125 125.213 218.226 125.213Z" fill="white"/>
<path d="M88.6894 55.7461H32.3302C31.4493 55.7461 30.7351 55.0322 30.7351 54.1518V49.3691C30.7351 45.8471 33.5916 42.9921 37.1154 42.9921H43.4957V36.0837C43.4957 35.2033 44.2099 34.4895 45.0908 34.4895H50.4077C51.2886 34.4895 52.0028 35.2033 52.0028 36.0837V42.9921H69.0169V36.0837C69.0169 35.2033 69.7311 34.4895 70.6119 34.4895H75.9289C76.8097 34.4895 77.5239 35.2033 77.5239 36.0837V42.9921H83.9042C87.428 42.9921 90.2845 45.8471 90.2845 49.3691V54.1518C90.2845 55.0322 89.5703 55.7461 88.6894 55.7461ZM32.3302 59.9974H88.6894C89.5703 59.9974 90.2845 60.7112 90.2845 61.5916V96.1335C90.2845 99.6555 87.428 102.51 83.9042 102.51H37.1154C33.5916 102.51 30.7351 99.6555 30.7351 96.1335V61.5916C30.7351 60.7112 31.4493 59.9974 32.3302 59.9974ZM76.6328 72.7443L72.8885 68.9715C72.2682 68.3464 71.2582 68.3423 70.6328 68.9625L56.5381 82.9365L50.4263 76.7785C49.8059 76.1534 48.7959 76.1493 48.1705 76.7695L44.3958 80.5119C43.7704 81.132 43.7663 82.1414 44.3868 82.7665L55.3664 93.829C55.9867 94.4541 56.9967 94.4582 57.6221 93.8381L76.6238 74.9988C77.2492 74.3788 77.2533 73.3693 76.6328 72.7443Z" fill="white"/>
</g>
<defs>
<filter id="filter0_d_70_387" x="0" y="0" width="253" height="147" filterUnits="userSpaceOnUse" color-interpolation-filters="sRGB">
<feFlood flood-opacity="0" result="BackgroundImageFix"/>
<feColorMatrix in="SourceAlpha" type="matrix" values="0 0 0 0 0 0 0 0 0 0 0 0 0 0 0 0 0 0 127 0" result="hardAlpha"/>
<feOffset dx="6" dy="6"/>
<feGaussianBlur stdDeviation="2"/>
<feComposite in2="hardAlpha" operator="out"/>
<feColorMatrix type="matrix" values="0 0 0 0 0 0 0 0 0 0 0 0 0 0 0 0 0 0 0.6 0"/>
<feBlend mode="normal" in2="BackgroundImageFix" result="effect1_dropShadow_70_387"/>
<feBlend mode="normal" in="SourceGraphic" in2="effect1_dropShadow_70_387" result="shape"/>
</filter>
</defs>
</svg>
